<?xml version="1.0" encoding="UTF-8"?>
<svg version="1.1" xmlns="http://www.w3.org/2000/svg" width="102" height="103">
<path d="M0 0 C1.43002968 -0.00676357 2.86004802 -0.01649125 4.29003906 -0.0289917 C7.2661034 -0.04361149 10.23913653 -0.0227346 13.21484375 0.02441406 C16.99230213 0.08141387 20.7626572 0.04853733 24.53985596 -0.01131058 C27.48669059 -0.04779694 30.431895 -0.03579326 33.37878418 -0.01003265 C34.76917405 -0.00345657 36.15972197 -0.01120865 37.54992676 -0.03482819 C47.6891265 -0.16937376 53.84316144 2.29644304 61.3996582 8.70513916 C63.75 11.328125 63.75 11.328125 64.35253906 13.98895264 C64.07144655 17.8665531 62.90868533 20.09009701 60.75 23.328125 C63.06 23.988125 65.37 24.648125 67.75 25.328125 C66.875 30.078125 66.875 30.078125 65.75 32.328125 C65.09 32.328125 64.43 32.328125 63.75 32.328125 C63.6571875 33.7203125 63.6571875 33.7203125 63.5625 35.140625 C63.294375 36.1925 63.02625 37.244375 62.75 38.328125 C61.50476563 38.81152344 61.50476563 38.81152344 60.234375 39.3046875 C57.54343584 41.0522955 57.54343584 41.0522955 57.3112793 43.65209961 C57.17384581 46.73844059 57.1522896 49.8013758 57.1875 52.890625 C57.26503646 62.58268243 56.21085406 70.13684391 50.75 78.328125 C50.09 78.328125 49.43 78.328125 48.75 78.328125 C48.523125 78.905625 48.29625 79.483125 48.0625 80.078125 C44.93146212 85.44561851 39.14446926 87.80784867 33.75 90.390625 C24.22475128 94.57950669 24.22475128 94.57950669 17.75 102.328125 C14.79762632 102.00008348 13.80655745 101.38910965 11.75390625 99.17578125 C7.21600357 94.49734997 1.16336742 91.58553057 -4.4140625 88.3203125 C-12.73762112 83.32617733 -19.24223387 78.57781963 -22.58789062 69.16503906 C-23.86123722 63.70918088 -23.66143362 58.27258499 -23.5 52.703125 C-23.48195313 51.50816406 -23.46390625 50.31320313 -23.4453125 49.08203125 C-23.3986112 46.16319973 -23.3331334 43.24610739 -23.25 40.328125 C-23.91 40.328125 -24.57 40.328125 -25.25 40.328125 C-29.82142857 33.04241071 -29.82142857 33.04241071 -29.25 28.328125 C-30.24 28.328125 -31.23 28.328125 -32.25 28.328125 C-32 26.453125 -32 26.453125 -31.25 24.328125 C-29.203125 23.1953125 -29.203125 23.1953125 -27.25 22.328125 C-27.58451172 21.31105469 -27.58451172 21.31105469 -27.92578125 20.2734375 C-28.67536516 16.95319464 -28.82025842 14.70123682 -28.25 11.328125 C-26.39862533 9.15937595 -24.91561086 7.70458065 -22.68359375 6.02832031 C-22.10083679 5.58973316 -21.51807983 5.15114601 -20.91766357 4.69926834 C-14.3440694 0.15888876 -7.82784729 -0.13299486 0 0 Z " fill="#F8F8F8" transform="translate(32.25,-1.328125)"/>
<path d="M0 0 C1.43002968 -0.00676357 2.86004802 -0.01649125 4.29003906 -0.0289917 C7.2661034 -0.04361149 10.23913653 -0.0227346 13.21484375 0.02441406 C16.99230213 0.08141387 20.7626572 0.04853733 24.53985596 -0.01131058 C27.48669059 -0.04779694 30.431895 -0.03579326 33.37878418 -0.01003265 C34.76917405 -0.00345657 36.15972197 -0.01120865 37.54992676 -0.03482819 C47.6891265 -0.16937376 53.84316144 2.29644304 61.3996582 8.70513916 C63.75 11.328125 63.75 11.328125 64.35253906 13.98895264 C64.07144655 17.8665531 62.90868533 20.09009701 60.75 23.328125 C63.06 23.988125 65.37 24.648125 67.75 25.328125 C66.875 30.078125 66.875 30.078125 65.75 32.328125 C65.09 32.328125 64.43 32.328125 63.75 32.328125 C63.6571875 33.7203125 63.6571875 33.7203125 63.5625 35.140625 C63.294375 36.1925 63.02625 37.244375 62.75 38.328125 C61.50476563 38.81152344 61.50476563 38.81152344 60.234375 39.3046875 C57.54343584 41.0522955 57.54343584 41.0522955 57.3112793 43.65209961 C57.17384581 46.73844059 57.1522896 49.8013758 57.1875 52.890625 C57.26503646 62.58268243 56.21085406 70.13684391 50.75 78.328125 C50.09 78.328125 49.43 78.328125 48.75 78.328125 C48.523125 78.905625 48.29625 79.483125 48.0625 80.078125 C44.93146212 85.44561851 39.14446926 87.80784867 33.75 90.390625 C24.61262159 94.11009061 24.61262159 94.11009061 18.75 101.328125 C17.76 101.328125 16.77 101.328125 15.75 101.328125 C15.75 100.338125 15.75 99.348125 15.75 98.328125 C16.41 98.328125 17.07 98.328125 17.75 98.328125 C17.9046875 97.4309375 17.9046875 97.4309375 18.0625 96.515625 C19.28814124 92.61585743 21.66672773 91.37200668 25.2265625 89.49609375 C26.60761655 88.83226666 27.99052274 88.17228275 29.375 87.515625 C43.32800132 80.95336903 43.32800132 80.95336903 51.82177734 68.57373047 C52.82399673 65.06938946 53.06742699 62.03837505 53.1640625 58.3984375 C53.20273438 57.109375 53.24140625 55.8203125 53.28125 54.4921875 C53.31269758 53.14583793 53.34394511 51.79948368 53.375 50.453125 C53.41323041 49.08330986 53.45228501 47.71351745 53.4921875 46.34375 C53.58622715 43.00534237 53.67188057 39.66693686 53.75 36.328125 C52.84137207 36.18246094 51.93274414 36.03679688 50.99658203 35.88671875 C48.55692219 35.46696076 46.19962666 34.99958248 43.8046875 34.390625 C43.12019531 34.21789063 42.43570313 34.04515625 41.73046875 33.8671875 C41.03566406 33.68929687 40.34085937 33.51140625 39.625 33.328125 C38.92246094 33.15023437 38.21992187 32.97234375 37.49609375 32.7890625 C31.91493635 31.37530996 31.91493635 31.37530996 29.84179688 30.78222656 C13.56183483 27.24806113 -3.87639523 31.10097111 -19.25 36.328125 C-19.37501994 40.41723871 -19.46499365 44.50558965 -19.5246582 48.59619141 C-19.54956805 49.98310764 -19.58351002 51.36989587 -19.62719727 52.75634766 C-19.92483619 62.45587508 -19.36094448 70.64425219 -12.60131836 78.16162109 C-8.8698473 81.74804846 -4.47090921 83.8412475 0.171875 86.02734375 C4.27271374 88.0964033 7.99775445 90.69067704 11.75 93.328125 C8.75 94.328125 8.75 94.328125 6.734375 93.4375 C5.99703125 92.98890625 5.2596875 92.5403125 4.5 92.078125 C1.72895666 90.44783532 -0.95063432 88.95637992 -3.9375 87.765625 C-12.08237378 84.23105714 -18.00504473 78.85941721 -21.9453125 70.90625 C-24.0122275 65.04442179 -23.5689318 58.9616088 -23.4375 52.828125 C-23.42396484 51.62414063 -23.41042969 50.42015625 -23.39648438 49.1796875 C-23.36135352 46.22869527 -23.31215996 43.27865088 -23.25 40.328125 C-23.91 40.328125 -24.57 40.328125 -25.25 40.328125 C-29.82142857 33.04241071 -29.82142857 33.04241071 -29.25 28.328125 C-30.24 28.328125 -31.23 28.328125 -32.25 28.328125 C-32 26.453125 -32 26.453125 -31.25 24.328125 C-29.203125 23.1953125 -29.203125 23.1953125 -27.25 22.328125 C-27.58451172 21.31105469 -27.58451172 21.31105469 -27.92578125 20.2734375 C-28.67536516 16.95319464 -28.82025842 14.70123682 -28.25 11.328125 C-26.39862533 9.15937595 -24.91561086 7.70458065 -22.68359375 6.02832031 C-22.10083679 5.58973316 -21.51807983 5.15114601 -20.91766357 4.69926834 C-14.3440694 0.15888876 -7.82784729 -0.13299486 0 0 Z " fill="#4B479F" transform="translate(32.25,-1.328125)"/>
<path d="M0 0 C3.55272182 0.05700969 7.09795791 0.0232962 10.65042114 -0.03452301 C35.84930894 -0.38089226 35.84930894 -0.38089226 43.20214844 6.38183594 C45.72949219 9.16015625 45.72949219 9.16015625 47.26464844 11.30371094 C46.60464844 14.27371094 45.94464844 17.24371094 45.26464844 20.30371094 C40.69433973 19.43317595 36.20170156 18.57499041 31.72949219 17.28027344 C9.44966487 10.93394967 -14.8992423 13.37268088 -36.73535156 20.30371094 C-37.39535156 17.33371094 -38.05535156 14.36371094 -38.73535156 11.30371094 C-29.29669538 -1.87558315 -14.65720211 -0.2385578 0 0 Z " fill="#F7F8F8" transform="translate(45.7353515625,0.6962890625)"/>
<path d="M0 0 C0.33 0.99 0.66 1.98 1 3 C2.32 3 3.64 3 5 3 C7.09065618 6.39731629 7.42098999 9.04269405 7 13 C5.5625 14.6875 5.5625 14.6875 4 16 C3.67 16.99 3.34 17.98 3 19 C4.20398438 19.13277344 5.40796875 19.26554687 6.6484375 19.40234375 C8.22398085 19.5805302 9.79950047 19.7589265 11.375 19.9375 C12.1690625 20.02451172 12.963125 20.11152344 13.78125 20.20117188 C19.7734375 20.88671875 19.7734375 20.88671875 22 22 C22.4140625 24.72265625 22.4140625 24.72265625 22.625 28.0625 C22.69976562 29.16722656 22.77453125 30.27195312 22.8515625 31.41015625 C22.90054688 32.26480469 22.94953125 33.11945313 23 34 C25.54521255 29.37234081 26.8545847 25.1103144 28 20 C29.32 20 30.64 20 32 20 C31.47462276 25.0302076 30.89405214 30.01885239 30 35 C29.34 35 28.68 35 28 35 C28 34.01 28 33.02 28 32 C27.34 32 26.68 32 26 32 C26 34.97 26 37.94 26 41 C24.68 41.66 23.36 42.32 22 43 C21.67 43.99 21.34 44.98 21 46 C19.68 45.34 18.36 44.68 17 44 C16.67 45.32 16.34 46.64 16 48 C15.34 48 14.68 48 14 48 C14 48.66 14 49.32 14 50 C5.96498906 54.23632385 5.96498906 54.23632385 1.9375 53.25 C0.9784375 52.63125 0.9784375 52.63125 0 52 C0 52.66 0 53.32 0 54 C-5.73842251 54.20413361 -10.60539047 54.27141454 -16 52 C-15.67 51.34 -15.34 50.68 -15 50 C-15 49.01 -15 48.02 -15 47 C-8.25 47.75 -8.25 47.75 -6 50 C-6 50.99 -6 51.98 -6 53 C-5.34 53 -4.68 53 -4 53 C-4 52.01 -4 51.02 -4 50 C-1.69 50 0.62 50 3 50 C3 50.66 3 51.32 3 52 C3.66 52 4.32 52 5 52 C5 50.68 5 49.36 5 48 C7.90600261 46.74335022 9.79604584 46 13 46 C13 45.34 13 44.68 13 44 C14.485 43.505 14.485 43.505 16 43 C17.42857119 41.59894424 17.42857119 41.59894424 18.6875 39.9375 C19.450625 38.968125 20.21375 37.99875 21 37 C20.01 37.33 19.02 37.66 18 38 C16.37280518 38.08143855 14.74248281 38.1075302 13.11328125 38.09765625 C12.17548828 38.09443359 11.23769531 38.09121094 10.27148438 38.08789062 C8.80678711 38.07532227 8.80678711 38.07532227 7.3125 38.0625 C5.83040039 38.05573242 5.83040039 38.05573242 4.31835938 38.04882812 C1.87884526 38.03704303 -0.56054689 38.02059011 -3 38 C-5.50046767 33.41045265 -6.34719828 31.14384799 -5 26 C-5.639375 25.855625 -6.27875 25.71125 -6.9375 25.5625 C-9 25 -9 25 -10 24 C-9.95875 22.906875 -9.9175 21.81375 -9.875 20.6875 C-9.6385422 17.08407989 -9.6385422 17.08407989 -11.4765625 15.08203125 C-13.79884443 11.90824595 -13.54177007 9.17826392 -13.40625 5.35546875 C-13 3 -13 3 -11 0.3125 C-6.8438882 -1.50579891 -4.4104356 -0.89703775 0 0 Z " fill="#9D989F" transform="translate(51,32)"/>
<path d="M0 0 C0 1.32 0 2.64 0 4 C-0.66 4.33 -1.32 4.66 -2 5 C-2 4.34 -2 3.68 -2 3 C-2.66 3 -3.32 3 -4 3 C-4 4.32 -4 5.64 -4 7 C-4.66 7 -5.32 7 -6 7 C-6.495 5.02 -6.495 5.02 -7 3 C-7 4.65 -7 6.3 -7 8 C-10.92321974 7.59133128 -13.87077076 7.05214513 -17.5625 5.5625 C-35.72903441 -1.45638829 -60.03794878 -0.02553355 -77.87109375 7.15625 C-79.36358981 7.82488824 -80.84435997 8.521677 -82.30078125 9.265625 C-84 10 -84 10 -87 10 C-89.35723489 7.46815512 -90 6.52809907 -90 3 C-90.66 3 -91.32 3 -92 3 C-92 2.01 -92 1.02 -92 0 C-61.56832642 -12.3566191 -30.45803245 -12.51533514 0 0 Z " fill="#E2E3E9" transform="translate(95,25)"/>
<path d="M0 0 C16.32970992 -0.55806054 29.49575882 0.8242458 45 6 C45.09990539 9.96509139 45.17194834 13.92968163 45.21972656 17.89575195 C45.24940781 19.89756051 45.30027058 21.89901919 45.3515625 23.90039062 C45.44390762 33.06564329 44.05891175 38.94103056 39.375 46.6875 C35.30532106 50.65008212 29.83174249 55 24 55 C23.34 54.34 22.68 53.68 22 53 C22.66 53 23.32 53 24 53 C23.67 52.01 23.34 51.02 23 50 C23.99 50 24.98 50 26 50 C26.33 49.01 26.66 48.02 27 47 C27.5775 47.2475 28.155 47.495 28.75 47.75 C31.10854923 48.24834707 31.10854923 48.24834707 33.1875 46.625 C35.74280844 42.92420846 35.81145487 39.41195606 36 35 C36.66 35 37.32 35 38 35 C38 35.99 38 36.98 38 38 C38.66 38 39.32 38 40 38 C40.20970559 33.85906302 40.20970559 33.85906302 39 30 C39.66 30 40.32 30 41 30 C41 29.34 41 28.68 41 28 C40.34 27.67 39.68 27.34 39 27 C39.99 27 40.98 27 42 27 C42 25.68 42 24.36 42 23 C40.68 23 39.36 23 38 23 C37.9175 24.175625 37.835 25.35125 37.75 26.5625 C37.20155569 31.15469785 35.49130683 34.14249265 33 38 C32.67 38 32.34 38 32 38 C32 33.71 32 29.42 32 25 C29.97875 24.87625 27.9575 24.7525 25.875 24.625 C21.23934612 24.34118446 17.35590568 23.62849969 13 22 C13.57344937 19.13275314 13.8614515 18.1385485 16 16 C16.24315656 13.33050591 16.24315656 13.33050591 16.125 10.375 C16.10695313 9.37210938 16.08890625 8.36921875 16.0703125 7.3359375 C16.04710938 6.56507812 16.02390625 5.79421875 16 5 C15.34 5 14.68 5 14 5 C13.58105469 4.51917969 13.16210938 4.03835937 12.73046875 3.54296875 C10.32964259 1.40227725 8.48276666 1.49898627 5.3125 1.3125 C4.31863281 1.24675781 3.32476562 1.18101563 2.30078125 1.11328125 C1.54152344 1.07589844 0.78226563 1.03851562 0 1 C0 0.67 0 0.34 0 0 Z " fill="#FAFAFB" transform="translate(41,29)"/>
<path d="M0 0 C0 0.33 0 0.66 0 1 C-2.64 1.33 -5.28 1.66 -8 2 C-7.01 2.66 -6.02 3.32 -5 4 C-5 4.66 -5 5.32 -5 6 C-4.34 6 -3.68 6 -3 6 C-2.505 8.475 -2.505 8.475 -2 11 C-2.66 9.68 -3.32 8.36 -4 7 C-5.32 7 -6.64 7 -8 7 C-8.495 6.01 -8.495 6.01 -9 5 C-11.83741877 4.40505735 -14.14548839 3.93093924 -17 4 C-18.89958081 5.31318262 -18.89958081 5.31318262 -20 7 C-20.66 7 -21.32 7 -22 7 C-21.91231752 8.5843317 -21.80412671 10.16753567 -21.6875 11.75 C-21.62949219 12.63171875 -21.57148437 13.5134375 -21.51171875 14.421875 C-20.93045292 17.35038986 -19.79658582 18.66826095 -18 21 C-17.8125 24.75 -17.8125 24.75 -18 28 C-17.03126953 28.35771484 -17.03126953 28.35771484 -16.04296875 28.72265625 C-14 30 -14 30 -13.42578125 32.05859375 C-13.36970703 33.23615234 -13.36970703 33.23615234 -13.3125 34.4375 C-13.14844108 37.28275042 -12.91427025 39.25718925 -12 42 C-13.65 42 -15.3 42 -17 42 C-17.33 41.34 -17.66 40.68 -18 40 C-19.485 40.495 -19.485 40.495 -21 41 C-21 40.34 -21 39.68 -21 39 C-21.8971875 38.814375 -21.8971875 38.814375 -22.8125 38.625 C-25 38 -25 38 -28 36 C-28 34.68 -28 33.36 -28 32 C-29.98 31.67 -31.96 31.34 -34 31 C-34 27.7 -34 24.4 -34 21 C-34.7425 21.020625 -35.485 21.04125 -36.25 21.0625 C-39 20 -39 20 -40.15234375 17.96484375 C-40.83720213 16.33410549 -41.48903473 14.68906404 -42.10546875 13.03125 C-42.81933878 10.82436207 -42.81933878 10.82436207 -45 10 C-45.33 13.63 -45.66 17.26 -46 21 C-46.33 21 -46.66 21 -47 21 C-47 16.38 -47 11.76 -47 7 C-31.69745603 -0.65127199 -16.73480208 -0.40217974 0 0 Z " fill="#EEEDF1" transform="translate(60,28)"/>
<path d="M0 0 C0.66 0.66 1.32 1.32 2 2 C4.58354218 2.16687448 4.58354218 2.16687448 7 2 C7.02689216 3.47906892 7.04634621 4.95827483 7.0625 6.4375 C7.07410156 7.26121094 7.08570313 8.08492187 7.09765625 8.93359375 C7 11 7 11 6 12 C6.99 12 7.98 12 9 12 C9.99 14.97 10.98 17.94 12 21 C12.66 21 13.32 21 14 21 C14 21.99 14 22.98 14 24 C14.99 24 15.98 24 17 24 C17 24.66 17 25.32 17 26 C17.66 26 18.32 26 19 26 C21 28 21 28 21 31 C21.66 31 22.32 31 23 31 C23 30.34 23 29.68 23 29 C23.66 29.33 24.32 29.66 25 30 C25.33 30.99 25.66 31.98 26 33 C25.01 33.66 24.02 34.32 23 35 C28.28 35.66 33.56 36.32 39 37 C39 36.34 39 35.68 39 35 C41.64 35.33 44.28 35.66 47 36 C47.495 35.01 47.495 35.01 48 34 C50.66666667 34 53.33333333 34 56 34 C47.25 41 47.25 41 42 41 C41.67 41.99 41.34 42.98 41 44 C40.34 44 39.68 44 39 44 C38.67 45.32 38.34 46.64 38 48 C37.34 48 36.68 48 36 48 C36 48.99 36 49.98 36 51 C36.99 51.495 36.99 51.495 38 52 C34.44957089 51.60550788 33.0573911 50.08349008 30.703125 47.54296875 C26.92356073 44.11882222 22.34509633 41.64054015 18 39 C18.99 38.505 18.99 38.505 20 38 C22.1640625 38.99609375 22.1640625 38.99609375 24.625 40.4375 C25.44226563 40.91058594 26.25953125 41.38367188 27.1015625 41.87109375 C27.72804688 42.24363281 28.35453125 42.61617187 29 43 C29.33 42.67 29.66 42.34 30 42 C25.03745742 38.92744704 20.13961433 36.0226106 14.8125 33.625 C7.13869087 29.86048986 2.80067847 23.99601988 0 16 C-0.32344827 13.16974387 -0.28896181 10.40603219 -0.1875 7.5625 C-0.17396484 6.83095703 -0.16042969 6.09941406 -0.14648438 5.34570312 C-0.11153874 3.56347578 -0.05774805 1.78163427 0 0 Z " fill="#F3F4F7" transform="translate(12,49)"/>
<path d="M0 0 C2.45873768 0.14058476 4.91685175 0.28722999 7.375 0.4375 C8.42300781 0.49647461 8.42300781 0.49647461 9.4921875 0.55664062 C14.7734375 0.88671875 14.7734375 0.88671875 17 2 C17.4140625 4.72265625 17.4140625 4.72265625 17.625 8.0625 C17.69976562 9.16722656 17.77453125 10.27195312 17.8515625 11.41015625 C17.90054688 12.26480469 17.94953125 13.11945313 18 14 C20.54521255 9.37234081 21.8545847 5.1103144 23 0 C24.32 0 25.64 0 27 0 C26.47462276 5.0302076 25.89405214 10.01885239 25 15 C24.34 15 23.68 15 23 15 C23 14.01 23 13.02 23 12 C22.34 12 21.68 12 21 12 C21 14.97 21 17.94 21 21 C19.02 21.99 19.02 21.99 17 23 C16.505 24.485 16.505 24.485 16 26 C14.68 25.34 13.36 24.68 12 24 C11.67 25.32 11.34 26.64 11 28 C10.34 28 9.68 28 9 28 C9 28.66 9 29.32 9 30 C0.96498906 34.23632385 0.96498906 34.23632385 -3.0625 33.25 C-4.0215625 32.63125 -4.0215625 32.63125 -5 32 C-5 32.66 -5 33.32 -5 34 C-10.73842251 34.20413361 -15.60539047 34.27141454 -21 32 C-20.67 31.34 -20.34 30.68 -20 30 C-20 29.01 -20 28.02 -20 27 C-13.25 27.75 -13.25 27.75 -11 30 C-11 30.99 -11 31.98 -11 33 C-10.34 33 -9.68 33 -9 33 C-9 32.01 -9 31.02 -9 30 C-6.69 30 -4.38 30 -2 30 C-2 30.66 -2 31.32 -2 32 C-1.34 32 -0.68 32 0 32 C0 30.68 0 29.36 0 28 C2.90600261 26.74335022 4.79604584 26 8 26 C8 25.34 8 24.68 8 24 C8.99 23.67 9.98 23.34 11 23 C12.42857119 21.59894424 12.42857119 21.59894424 13.6875 19.9375 C14.450625 18.968125 15.21375 17.99875 16 17 C14.35 17.33 12.7 17.66 11 18 C11.33 17.34 11.66 16.68 12 16 C13.32 16 14.64 16 16 16 C16 14.35 16 12.7 16 11 C13.03 11 10.06 11 7 11 C8.32 10.67 9.64 10.34 11 10 C11 9.34 11 8.68 11 8 C5.06 8 -0.88 8 -7 8 C-6.67 6.68 -6.34 5.36 -6 4 C-2.04 4 1.92 4 6 4 C6 3.34 6 2.68 6 2 C3.03 1.505 3.03 1.505 0 1 C0 0.67 0 0.34 0 0 Z " fill="#B5B4B7" transform="translate(56,52)"/>
<path d="M0 0 C1.41626424 0.01871057 2.83259434 0.03291708 4.24894714 0.0428772 C7.9315573 0.08060246 11.61006147 0.17839239 15.29107666 0.28991699 C19.06523099 0.3932344 22.84006591 0.43809957 26.61523438 0.48828125 C33.98882761 0.59471488 41.35906757 0.76478341 48.73046875 0.9765625 C48.73046875 1.3065625 48.73046875 1.6365625 48.73046875 1.9765625 C47.62412079 1.96204544 47.62412079 1.96204544 46.49542236 1.94723511 C39.49379214 1.86436801 32.4939543 1.83048424 25.49197769 1.84959221 C21.89311046 1.8577399 18.2962812 1.84792767 14.69775391 1.79492188 C11.21491746 1.74431678 7.73512051 1.74369455 4.25209808 1.77560806 C2.29801752 1.78110396 0.34399665 1.73679216 -1.60955811 1.69113159 C-10.78222707 1.83593771 -15.46084103 4.43664367 -22.25250244 10.14749146 C-24.66902782 12.91922762 -24.66902782 12.91922762 -24.08392334 16.81173706 C-23.81517395 17.85612946 -23.54642456 18.90052185 -23.26953125 19.9765625 C-18.42040464 19.9765625 -14.18569171 18.74824047 -9.55273438 17.48632812 C-0.18400071 15.02558146 9.01280901 14.79462103 18.66796875 14.7890625 C19.78365234 14.77681641 20.89933594 14.76457031 22.04882812 14.75195312 C28.85457699 14.73999223 35.12186618 15.32884622 41.73046875 16.9765625 C41.07046875 17.6365625 40.41046875 18.2965625 39.73046875 18.9765625 C37.66058108 18.78055857 35.59128386 18.56917459 33.53076172 18.29150391 C13.36314129 16.02330597 -6.45105147 17.67902432 -25.30078125 25.2421875 C-27.26953125 25.9765625 -27.26953125 25.9765625 -29.26953125 25.9765625 C-29.26953125 26.6365625 -29.26953125 27.2965625 -29.26953125 27.9765625 C-30.25953125 27.9765625 -31.24953125 27.9765625 -32.26953125 27.9765625 C-32.01953125 26.1015625 -32.01953125 26.1015625 -31.26953125 23.9765625 C-29.22265625 22.84375 -29.22265625 22.84375 -27.26953125 21.9765625 C-27.60404297 20.95949219 -27.60404297 20.95949219 -27.9453125 19.921875 C-28.69495805 16.60135914 -28.83953115 14.35005738 -28.26953125 10.9765625 C-26.41888635 8.79824593 -24.93868458 7.33841474 -22.7043457 5.65478516 C-22.12178922 5.2154899 -21.53923273 4.77619465 -20.93902302 4.32358742 C-14.32698207 -0.23742353 -7.84459768 -0.31008921 0 0 Z " fill="#34309B" transform="translate(32.26953125,-0.9765625)"/>
<path d="M0 0 C2.69877046 2.51992783 2.69877046 2.51992783 5.8125 4.4375 C5.69791307 5.87586751 5.57040884 7.31320966 5.4375 8.75 C5.36789063 9.55050781 5.29828125 10.35101563 5.2265625 11.17578125 C4.8125 13.4375 4.8125 13.4375 2.8125 16.4375 C5.1225 17.0975 7.4325 17.7575 9.8125 18.4375 C8.9375 23.1875 8.9375 23.1875 7.8125 25.4375 C7.1525 25.4375 6.4925 25.4375 5.8125 25.4375 C5.7196875 26.8296875 5.7196875 26.8296875 5.625 28.25 C4.8125 31.4375 4.8125 31.4375 2.25 33.3125 C1.445625 33.68375 0.64125 34.055 -0.1875 34.4375 C-2.1875 31.4375 -2.1875 31.4375 -2.1875 29.4375 C-3.6725 28.4475 -3.6725 28.4475 -5.1875 27.4375 C-4.5275 27.1075 -3.8675 26.7775 -3.1875 26.4375 C-2.53536708 24.41286745 -2.53536708 24.41286745 -2.1875 22.4375 C-1.5275 22.7675 -0.8675 23.0975 -0.1875 23.4375 C-0.6825 24.9225 -0.6825 24.9225 -1.1875 26.4375 C-0.5275 26.4375 0.1325 26.4375 0.8125 26.4375 C0.8125 25.1175 0.8125 23.7975 0.8125 22.4375 C2.1325 22.4375 3.4525 22.4375 4.8125 22.4375 C4.8125 21.7775 4.8125 21.1175 4.8125 20.4375 C2.29295712 19.4756577 -0.22803637 18.51795759 -2.75 17.5625 C-3.45447266 17.29308594 -4.15894531 17.02367188 -4.88476562 16.74609375 C-9.27549499 15.08692413 -13.65643615 13.66404291 -18.1875 12.4375 C-18.1875 12.1075 -18.1875 11.7775 -18.1875 11.4375 C-11.49756781 11.97701066 -5.55289272 13.32456171 0.8125 15.4375 C1.97376302 12.26837577 2.33422228 9.78664378 1.8125 6.4375 C-1.95533481 1.67377941 -6.60204185 -1.92700957 -12.53793335 -3.38601685 C-16.25478883 -3.69417397 -19.87668211 -3.7318928 -23.60546875 -3.66015625 C-24.9574041 -3.66582365 -26.30932803 -3.6754535 -27.66120911 -3.68882751 C-31.18173159 -3.7132185 -34.6997995 -3.68459148 -38.22009277 -3.64404297 C-41.82714568 -3.61216735 -45.43390605 -3.63163365 -49.04101562 -3.64648438 C-56.0903723 -3.66808866 -63.13841728 -3.63355843 -70.1875 -3.5625 C-70.1875 -3.8925 -70.1875 -4.2225 -70.1875 -4.5625 C-62.32066882 -4.73975789 -54.4536869 -4.90569218 -46.58632374 -5.05727577 C-42.93297463 -5.12802 -39.2797904 -5.20262505 -35.62670898 -5.28613281 C-32.09960909 -5.3666173 -28.5724388 -5.43685633 -25.04498863 -5.50007248 C-23.0479762 -5.53851494 -21.05117562 -5.58749517 -19.05439758 -5.6366272 C-17.22306526 -5.66688492 -17.22306526 -5.66688492 -15.35473633 -5.69775391 C-14.28218094 -5.71996002 -13.20962555 -5.74216614 -12.10456848 -5.76504517 C-6.91583398 -5.40476803 -3.74967445 -3.47406975 0 0 Z " fill="#3E3B97" transform="translate(90.1875,5.5625)"/>
<path d="M0 0 C0 0.66 0 1.32 0 2 C-5.94 2.495 -5.94 2.495 -12 3 C-12.33 3.99 -12.66 4.98 -13 6 C-7.06 6 -1.12 6 5 6 C5 6.66 5 7.32 5 8 C7.475 8.495 7.475 8.495 10 9 C10 10.65 10 12.3 10 14 C5.15577153 16.54748246 0.50839624 16.22816428 -4.8125 16.125 C-5.69615234 16.11597656 -6.57980469 16.10695313 -7.49023438 16.09765625 C-9.66027359 16.07419637 -11.83017247 16.03832865 -14 16 C-16.69289519 11.06650467 -17.36150106 8.55073509 -16 3 C-11.7295367 -3.40569496 -6.45454728 -2.00313536 0 0 Z " fill="#605361" transform="translate(62,54)"/>
<path d="M0 0 C3.92858919 -0.05012431 7.85704984 -0.08605502 11.78588867 -0.10986328 C13.76552896 -0.12464917 15.74508063 -0.15008592 17.72460938 -0.17578125 C25.38728011 -0.21457958 32.52587958 0.27107972 40 2 C39.34 2.66 38.68 3.32 38 4 C37.35232207 6.57061311 37.35232207 6.57061311 37 9 C36.34 8.67 35.68 8.34 35 8 C35.33 6.68 35.66 5.36 36 4 C35.34 4 34.68 4 34 4 C34 5.65 34 7.3 34 9 C30.42505898 10.19164701 28.56027845 9.72898653 24.875 9.0625 C19.46946458 8.16056856 14.46928139 7.81460063 9 8 C9 5.69 9 3.38 9 1 C6.03 1 3.06 1 0 1 C0 0.67 0 0.34 0 0 Z " fill="#C3C3C4" transform="translate(34,16)"/>
<path d="M0 0 C0.66 0.66 1.32 1.32 2 2 C4.58354218 2.16687448 4.58354218 2.16687448 7 2 C7.02689216 3.47906892 7.04634621 4.95827483 7.0625 6.4375 C7.07410156 7.26121094 7.08570313 8.08492187 7.09765625 8.93359375 C7 11 7 11 6 12 C6.99 12 7.98 12 9 12 C9.99 14.97 10.98 17.94 12 21 C12.66 21 13.32 21 14 21 C14 21.99 14 22.98 14 24 C14.99 24 15.98 24 17 24 C17 24.66 17 25.32 17 26 C17.66 26 18.32 26 19 26 C19.66 27.32 20.32 28.64 21 30 C20.01 30.66 19.02 31.32 18 32 C18 31.34 18 30.68 18 30 C16.35 29.67 14.7 29.34 13 29 C13 28.34 13 27.68 13 27 C12.34 27 11.68 27 11 27 C9.29319053 25.37446717 7.62339805 23.70884005 6 22 C6 22.66 6 23.32 6 24 C3 23 3 23 1.32421875 19.96484375 C-0.30647933 15.80246827 -0.34515137 11.98078061 -0.1875 7.5625 C-0.17396484 6.83095703 -0.16042969 6.09941406 -0.14648438 5.34570312 C-0.11153874 3.56347578 -0.05774805 1.78163427 0 0 Z " fill="#EBECF3" transform="translate(12,49)"/>
<path d="M0 0 C4.5412844 -0.25229358 4.5412844 -0.25229358 6.875 1.03125 C9.46996487 2.21424869 10.9536529 2.03622752 13.75 1.625 C14.94882812 1.45871094 14.94882812 1.45871094 16.171875 1.2890625 C16.77515625 1.19367187 17.3784375 1.09828125 18 1 C18.33 1.66 18.66 2.32 19 3 C20.0725 2.979375 21.145 2.95875 22.25 2.9375 C25.20150353 2.98669173 27.24688001 3.14558345 30 4 C30.7425 4.185625 31.485 4.37125 32.25 4.5625 C32.8275 4.706875 33.405 4.85125 34 5 C34 6.65 34 8.3 34 10 C33.01 10 32.02 10 31 10 C31 9.34 31 8.68 31 8 C30.41992188 8.01160156 29.83984375 8.02320313 29.2421875 8.03515625 C24.7001754 8.08762174 20.47286431 7.91751063 16 7 C15.67 6.01 15.34 5.02 15 4 C15 4.99 15 5.98 15 7 C13.35 7.33 11.7 7.66 10 8 C10 8.33 10 8.66 10 9 C3.4 9 -3.2 9 -10 9 C-10 8.67 -10 8.34 -10 8 C-6.7 7.67 -3.4 7.34 0 7 C-3.3 6.67 -6.6 6.34 -10 6 C-10 4.35 -10 2.7 -10 1 C-9.34 1 -8.68 1 -8 1 C-8 2.32 -8 3.64 -8 5 C-7.67 3.68 -7.34 2.36 -7 1 C-6.34 1 -5.68 1 -5 1 C-4.34 2.32 -3.68 3.64 -3 5 C-2.34 5 -1.68 5 -1 5 C-0.67 3.35 -0.34 1.7 0 0 Z " fill="#BCBDC2" transform="translate(49,5)"/>
<path d="M0 0 C0.33 0 0.66 0 1 0 C1.02505615 0.63502441 1.0501123 1.27004883 1.07592773 1.92431641 C1.19256789 4.82471542 1.31498393 7.72484349 1.4375 10.625 C1.47681641 11.62402344 1.51613281 12.62304688 1.55664062 13.65234375 C1.72845983 17.64383615 1.89604102 21.4570335 2.6484375 25.38671875 C3.07582787 28.56365386 2.46645518 30.27256682 1.1875 33.1875 C0.83042969 34.02667969 0.47335938 34.86585937 0.10546875 35.73046875 C-1 38 -1 38 -3 41 C-3.66 41 -4.32 41 -5 41 C-5.226875 41.5775 -5.45375 42.155 -5.6875 42.75 C-8.81853788 48.11749351 -14.60553074 50.47972367 -20 53.0625 C-29.13737841 56.78196561 -29.13737841 56.78196561 -35 64 C-35.99 64 -36.98 64 -38 64 C-38 63.01 -38 62.02 -38 61 C-37.34 61 -36.68 61 -36 61 C-35.896875 60.401875 -35.79375 59.80375 -35.6875 59.1875 C-34.46185876 55.28773243 -32.08327227 54.04388168 -28.5234375 52.16796875 C-27.14238345 51.50414166 -25.75947726 50.84415775 -24.375 50.1875 C-10.41364837 43.62391173 -10.41364837 43.62391173 -1.92822266 31.23193359 C-0.94293833 27.80131974 -0.68401008 24.85236619 -0.5859375 21.2890625 C-0.54726562 20.04511719 -0.50859375 18.80117188 -0.46875 17.51953125 C-0.4378125 16.23433594 -0.406875 14.94914062 -0.375 13.625 C-0.33632812 12.31660156 -0.29765625 11.00820313 -0.2578125 9.66015625 C-0.16380043 6.44024284 -0.07814179 3.2203312 0 0 Z " fill="#6665AF" transform="translate(86,36)"/>
<path d="M0 0 C0.66 0 1.32 0 2 0 C2 0.99 2 1.98 2 3 C2.66 3 3.32 3 4 3 C4 3.66 4 4.32 4 5 C5.32 4.01 6.64 3.02 8 2 C7.47731534 4.76276177 6.89130413 7.3260876 6 10 C8.97 10 11.94 10 15 10 C15.33 10.99 15.66 11.98 16 13 C14.35 12.67 12.7 12.34 11 12 C11.33 12.66 11.66 13.32 12 14 C12.66 14 13.32 14 14 14 C14 15.65 14 17.3 14 19 C14.99 19 15.98 19 17 19 C17 19.66 17 20.32 17 21 C18.65 21.33 20.3 21.66 22 22 C21.67 22.99 21.34 23.98 21 25 C19.68 24.34 18.36 23.68 17 23 C17 23.99 17 24.98 17 26 C17.804375 26.2475 18.60875 26.495 19.4375 26.75 C22 28 22 28 22.8125 30.125 C22.874375 30.74375 22.93625 31.3625 23 32 C22.34 32 21.68 32 21 32 C21 31.34 21 30.68 21 30 C20.401875 29.87625 19.80375 29.7525 19.1875 29.625 C17 29 17 29 14 27 C14 25.68 14 24.36 14 23 C12.02 22.67 10.04 22.34 8 22 C8 18.7 8 15.4 8 12 C7.236875 12 6.47375 12 5.6875 12 C3 11 3 11 2 9.2578125 C0.76662436 6.02020143 0 3.49130213 0 0 Z " fill="#A5A5A5" transform="translate(18,37)"/>
<path d="M0 0 C0.99 0 1.98 0 3 0 C3.01417969 0.96679688 3.02835938 1.93359375 3.04296875 2.9296875 C3.40704517 12.86798974 4.54272729 21.1556915 12.1875 28.3125 C15.66035342 31.00188974 19.4610553 32.83423156 23.421875 34.69921875 C27.52271374 36.7682783 31.24775445 39.36255204 35 42 C32 43 32 43 29.984375 42.109375 C29.24703125 41.66078125 28.5096875 41.2121875 27.75 40.75 C24.97895666 39.11971032 22.29936568 37.62825492 19.3125 36.4375 C11.43540982 33.01914011 4.72163165 27.35986523 1.0625 19.4375 C-0.95829587 13.31350277 -0.22408761 6.37404762 0 0 Z " fill="#5A55A2" transform="translate(9,50)"/>
<path d="M0 0 C0 1.98 0 3.96 0 6 C-1.98 6.33 -3.96 6.66 -6 7 C-5.67 7.66 -5.34 8.32 -5 9 C-5.65226562 8.97679687 -6.30453125 8.95359375 -6.9765625 8.9296875 C-12.18675198 8.82210247 -16.04824872 9.2726449 -21 11 C-23.875 10.625 -23.875 10.625 -26 10 C-25.67 8.35 -25.34 6.7 -25 5 C-24.01 5.33 -23.02 5.66 -22 6 C-22.66 6 -23.32 6 -24 6 C-24 6.99 -24 7.98 -24 9 C-23.01 9 -22.02 9 -21 9 C-21 7.35 -21 5.7 -21 4 C-19.35 4.33 -17.7 4.66 -16 5 C-16 4.34 -16 3.68 -16 3 C-15.01 3 -14.02 3 -13 3 C-13 2.34 -13 1.68 -13 1 C-14.65 1 -16.3 1 -18 1 C-18 0.67 -18 0.34 -18 0 C-11.84098757 -1.23180249 -6.21324498 -0.73030908 0 0 Z " fill="#EAEBEC" transform="translate(41,18)"/>
<path d="M0 0 C2.97 0 5.94 0 9 0 C9 2.31 9 4.62 9 7 C9.54785156 6.90460937 10.09570312 6.80921875 10.66015625 6.7109375 C18.70873706 5.5854449 26.03347257 6.71473357 34 8 C34 6.35 34 4.7 34 3 C34.66 3 35.32 3 36 3 C36.495 4.98 36.495 4.98 37 7 C37 5.35 37 3.7 37 2 C44.50769231 1.63076923 44.50769231 1.63076923 47 3.5 C47.495 4.2425 47.495 4.2425 48 5 C45 6 45 6 42.8125 5.0625 C42.214375 4.711875 41.61625 4.36125 41 4 C40.79029441 8.14093698 40.79029441 8.14093698 42 12 C39.9163691 11.85848172 37.83310062 11.71162064 35.75 11.5625 C34.58984375 11.48128906 33.4296875 11.40007813 32.234375 11.31640625 C29 11 29 11 27.1640625 10.5 C24.46898662 9.87731099 21.90490497 9.78231803 19.140625 9.68359375 C18.02558594 9.64169922 16.91054688 9.59980469 15.76171875 9.55664062 C14.60285156 9.51732422 13.44398437 9.47800781 12.25 9.4375 C11.07566406 9.39431641 9.90132812 9.35113281 8.69140625 9.30664062 C5.79438549 9.20065206 2.89728065 9.09858362 0 9 C0.33 7.35 0.66 5.7 1 4 C1.33 5.32 1.66 6.64 2 8 C3.65 7.67 5.3 7.34 7 7 C7 5.02 7 3.04 7 1 C4.69 1 2.38 1 0 1 C0 0.67 0 0.34 0 0 Z " fill="#F8F9FC" transform="translate(34,17)"/>
<path d="M0 0 C0.33 0.99 0.66 1.98 1 3 C2.32 3 3.64 3 5 3 C7.09065618 6.39731629 7.42098999 9.04269405 7 13 C5.625 14.875 5.625 14.875 4 16 C3.34 16 2.68 16 2 16 C2 16.66 2 17.32 2 18 C-2.95 18.495 -2.95 18.495 -8 19 C-8 18.01 -8 17.02 -8 16 C-7.34 15.67 -6.68 15.34 -6 15 C-6.66 14.01 -7.32 13.02 -8 12 C-6.14375 12.2784375 -6.14375 12.2784375 -4.25 12.5625 C-1.23720423 12.94711223 1.10010827 13.0874594 4 12 C4.33 10.68 4.66 9.36 5 8 C3.68 8.33 2.36 8.66 1 9 C1.66 7.35 2.32 5.7 3 4 C1.35 4.33 -0.3 4.66 -2 5 C-1.67 3.68 -1.34 2.36 -1 1 C-1.66 1 -2.32 1 -3 1 C-3 1.99 -3 2.98 -3 4 C-4.65 3.67 -6.3 3.34 -8 3 C-7.67 3.99 -7.34 4.98 -7 6 C-7.99 6.99 -8.98 7.98 -10 9 C-10.66 8.34 -11.32 7.68 -12 7 C-11.79417868 4.32432283 -11.26004093 2.45889576 -9.9375 0.125 C-6.66992981 -1.77229882 -3.63093124 -0.65475809 0 0 Z " fill="#837D84" transform="translate(51,32)"/>
<path d="M0 0 C4.95 0.33 9.9 0.66 15 1 C15.86988854 5.34944269 16.03595522 6.97128525 15 11 C12.36 11 9.72 11 7 11 C8.32 10.67 9.64 10.34 11 10 C11 9.34 11 8.68 11 8 C5.06 8 -0.88 8 -7 8 C-6.67 6.68 -6.34 5.36 -6 4 C-2.04 4 1.92 4 6 4 C6 3.34 6 2.68 6 2 C3.03 1.505 3.03 1.505 0 1 C0 0.67 0 0.34 0 0 Z " fill="#716C82" transform="translate(56,52)"/>
<path d="M0 0 C2.69877046 2.51992783 2.69877046 2.51992783 5.8125 4.4375 C5.69887738 5.9175841 5.57127092 7.39660074 5.4375 8.875 C5.36789063 9.69871094 5.29828125 10.52242187 5.2265625 11.37109375 C5.08992188 12.05300781 4.95328125 12.73492188 4.8125 13.4375 C4.1525 13.7675 3.4925 14.0975 2.8125 14.4375 C0.70384615 10.96442308 0.70384615 10.96442308 1.25390625 8.296875 C1.43824219 7.68328125 1.62257813 7.0696875 1.8125 6.4375 C-4.95454893 -0.43925518 -10.0103578 -3.58053515 -19.73417664 -3.7346344 C-21.01170303 -3.71005661 -22.28922943 -3.68547882 -23.60546875 -3.66015625 C-24.9574041 -3.66582365 -26.30932803 -3.6754535 -27.66120911 -3.68882751 C-31.18173159 -3.7132185 -34.6997995 -3.68459148 -38.22009277 -3.64404297 C-41.82714568 -3.61216735 -45.43390605 -3.63163365 -49.04101562 -3.64648438 C-56.0903723 -3.66808866 -63.13841728 -3.63355843 -70.1875 -3.5625 C-70.1875 -3.8925 -70.1875 -4.2225 -70.1875 -4.5625 C-62.32066882 -4.73975789 -54.4536869 -4.90569218 -46.58632374 -5.05727577 C-42.93297463 -5.12802 -39.2797904 -5.20262505 -35.62670898 -5.28613281 C-32.09960909 -5.3666173 -28.5724388 -5.43685633 -25.04498863 -5.50007248 C-23.0479762 -5.53851494 -21.05117562 -5.58749517 -19.05439758 -5.6366272 C-17.22306526 -5.66688492 -17.22306526 -5.66688492 -15.35473633 -5.69775391 C-14.28218094 -5.71996002 -13.20962555 -5.74216614 -12.10456848 -5.76504517 C-6.91583398 -5.40476803 -3.74967445 -3.47406975 0 0 Z " fill="#7878B6" transform="translate(90.1875,5.5625)"/>
<path d="M0 0 C1.9375 0.8125 1.9375 0.8125 4 2 C4.33 2.99 4.66 3.98 5 5 C5.66 5 6.32 5 7 5 C7.33 5.66 7.66 6.32 8 7 C10.40952023 8.24714403 10.40952023 8.24714403 13 9 C13.66 8.67 14.32 8.34 15 8 C15.66 8.33 16.32 8.66 17 9 C17 8.34 17 7.68 17 7 C17.66 7.33 18.32 7.66 19 8 C19.33 8.99 19.66 9.98 20 11 C19.01 11.66 18.02 12.32 17 13 C17.94875 13.12375 18.8975 13.2475 19.875 13.375 C23 14 23 14 25 16 C24.67 16.99 24.34 17.98 24 19 C19.25084298 17.61000282 15.20084573 15.5627801 11 13 C10.31292969 12.59394531 9.62585937 12.18789062 8.91796875 11.76953125 C1.402216 7.23776938 1.402216 7.23776938 -1 4 C-0.75 1.75 -0.75 1.75 0 0 Z " fill="#EDEEF6" transform="translate(18,71)"/>
<path d="M0 0 C0.66 0 1.32 0 2 0 C2 0.99 2 1.98 2 3 C3.32 2.67 4.64 2.34 6 2 C6.88658621 4.41796239 7.20826316 5.53447058 6.13671875 7.9296875 C2.01091113 13.46783357 -2.6906626 17.13310658 -9 20 C-9.99 20 -10.98 20 -12 20 C-12.66 19.34 -13.32 18.68 -14 18 C-13.34 18 -12.68 18 -12 18 C-12.33 17.01 -12.66 16.02 -13 15 C-12.01 15 -11.02 15 -10 15 C-9.67 14.01 -9.34 13.02 -9 12 C-8.4225 12.2475 -7.845 12.495 -7.25 12.75 C-4.89145077 13.24834707 -4.89145077 13.24834707 -2.8125 11.625 C-0.25719156 7.92420846 -0.18854513 4.41195606 0 0 Z " fill="#F0F1F4" transform="translate(77,64)"/>
<path d="M0 0 C1.11568359 -0.01224609 2.23136719 -0.02449219 3.38085938 -0.03710938 C10.18660824 -0.04907027 16.45389743 0.53978372 23.0625 2.1875 C22.4025 2.8475 21.7425 3.5075 21.0625 4.1875 C18.98967509 3.99162558 16.91742664 3.78039198 14.85400391 3.50244141 C-2.53239187 1.54088372 -20.05473053 2.78500831 -36.9375 7.1875 C-37.2675 6.5275 -37.5975 5.8675 -37.9375 5.1875 C-35.46014586 4.53396486 -32.98095526 3.88960399 -30.5 3.25 C-29.81228516 3.06759766 -29.12457031 2.88519531 -28.41601562 2.69726562 C-18.96971745 0.28077074 -9.72215509 0.0055971 0 0 Z " fill="#393497" transform="translate(50.9375,13.8125)"/>
<path d="M0 0 C0.66 0 1.32 0 2 0 C2 0.99 2 1.98 2 3 C3.32 3 4.64 3 6 3 C5.67 4.32 5.34 5.64 5 7 C5.99 7 6.98 7 8 7 C7.67 8.65 7.34 10.3 7 12 C5.68 12 4.36 12 3 12 C2.67 12.66 2.34 13.32 2 14 C2 13.34 2 12.68 2 12 C0.02 12 -1.96 12 -4 12 C-3.01 12.99 -2.02 13.98 -1 15 C-2.65 14.67 -4.3 14.34 -6 14 C-6.33 13.01 -6.66 12.02 -7 11 C-6.484375 10.62875 -5.96875 10.2575 -5.4375 9.875 C-3.63680017 7.96826848 -3.63680017 7.96826848 -4.3125 4.8125 C-4.539375 3.884375 -4.76625 2.95625 -5 2 C-3.35 2.33 -1.7 2.66 0 3 C0 2.01 0 1.02 0 0 Z " fill="#B7B3BA" transform="translate(48,33)"/>
<path d="M0 0 C6.75 0.75 6.75 0.75 9 3 C9 3.99 9 4.98 9 6 C9.66 6 10.32 6 11 6 C11 5.01 11 4.02 11 3 C13.31 3 15.62 3 18 3 C18 3.66 18 4.32 18 5 C18.66 5 19.32 5 20 5 C20 3.68 20 2.36 20 1 C26.75 -0.125 26.75 -0.125 29 1 C29 1.66 29 2.32 29 3 C20.96498906 7.23632385 20.96498906 7.23632385 16.9375 6.25 C16.298125 5.8375 15.65875 5.425 15 5 C15 5.66 15 6.32 15 7 C9.26157749 7.20413361 4.39460953 7.27141454 -1 5 C-0.67 4.34 -0.34 3.68 0 3 C0 2.01 0 1.02 0 0 Z " fill="#929393" transform="translate(36,79)"/>
<path d="M0 0 C0.33 0.99 0.66 1.98 1 3 C7.93 3.495 7.93 3.495 15 4 C15 5.32 15 6.64 15 8 C13.02 8.99 13.02 8.99 11 10 C14.3 10.33 17.6 10.66 21 11 C21 11.33 21 11.66 21 12 C14.73 12 8.46 12 2 12 C-1.375 5.25 -1.375 5.25 0 0 Z " fill="#68689A" transform="translate(46,58)"/>
<path d="M0 0 C0.66 0.66 1.32 1.32 2 2 C4.33293334 2.04320247 6.6670134 2.04022391 9 2 C11.1875 2.4375 11.1875 2.4375 13 3 C13.7425 3.185625 14.485 3.37125 15.25 3.5625 C16.11625 3.7790625 16.11625 3.7790625 17 4 C17 5.65 17 7.3 17 9 C16.01 9 15.02 9 14 9 C14 8.34 14 7.68 14 7 C13.12988281 7.01740234 13.12988281 7.01740234 12.2421875 7.03515625 C7.7001754 7.08762174 3.47286431 6.91751063 -1 6 C-1.33 5.01 -1.66 4.02 -2 3 C-2.33 3.99 -2.66 4.98 -3 6 C-4.32 5.67 -5.64 5.34 -7 5 C-7 3.68 -7 2.36 -7 1 C-3.625 0.375 -3.625 0.375 0 0 Z " fill="#B2B1B1" transform="translate(66,6)"/>
<path d="M0 0 C0.66 0 1.32 0 2 0 C2 1.65 2 3.3 2 5 C2.99 5 3.98 5 5 5 C5 5.66 5 6.32 5 7 C6.65 7.33 8.3 7.66 10 8 C9.67 8.99 9.34 9.98 9 11 C7.68 10.34 6.36 9.68 5 9 C5 9.99 5 10.98 5 12 C5.804375 12.2475 6.60875 12.495 7.4375 12.75 C10 14 10 14 10.8125 16.125 C10.874375 16.74375 10.93625 17.3625 11 18 C10.34 18 9.68 18 9 18 C9 17.34 9 16.68 9 16 C8.401875 15.87625 7.80375 15.7525 7.1875 15.625 C5 15 5 15 2 13 C2 11.68 2 10.36 2 9 C1.01 9 0.02 9 -1 9 C-1 7.02 -1 5.04 -1 3 C-0.34 3 0.32 3 1 3 C0.67 2.01 0.34 1.02 0 0 Z " fill="#B9B9B9" transform="translate(30,51)"/>
<path d="M0 0 C0.66 0 1.32 0 2 0 C2 0.66 2 1.32 2 2 C2.66 2 3.32 2 4 2 C4 2.66 4 3.32 4 4 C4.66 4 5.32 4 6 4 C6.33 2.68 6.66 1.36 7 0 C9.31 0 11.62 0 14 0 C14 1.32 14 2.64 14 4 C11.3754034 4.50220072 8.75036631 5.00185357 6.125 5.5 C5.37863281 5.64308594 4.63226563 5.78617188 3.86328125 5.93359375 C-1.7734375 7 -1.7734375 7 -4 7 C-4.33 5.35 -4.66 3.7 -5 2 C-3.515 2.99 -3.515 2.99 -2 4 C-1.34 4 -0.68 4 0 4 C0 2.68 0 1.36 0 0 Z " fill="#B9B9B9" transform="translate(22,8)"/>
<path d="M0 0 C1.65 0 3.3 0 5 0 C5.33 0.99 5.66 1.98 6 3 C6.66 3 7.32 3 8 3 C8 3.99 8 4.98 8 6 C8.99 6 9.98 6 11 6 C11 6.66 11 7.32 11 8 C11.66 8 12.32 8 13 8 C13.66 9.32 14.32 10.64 15 12 C14.01 12.66 13.02 13.32 12 14 C12 13.34 12 12.68 12 12 C10.35 11.67 8.7 11.34 7 11 C7 10.34 7 9.68 7 9 C6.34 9 5.68 9 5 9 C2.70351351 6.4385343 2 5.52032428 2 2 C1.34 2 0.68 2 0 2 C0 1.34 0 0.68 0 0 Z " fill="#AFB0AF" transform="translate(18,67)"/>
<path d="M0 0 C0.33 0 0.66 0 1 0 C1.02505615 0.63502441 1.0501123 1.27004883 1.07592773 1.92431641 C1.19256789 4.82471542 1.31498393 7.72484349 1.4375 10.625 C1.47681641 11.62402344 1.51613281 12.62304688 1.55664062 13.65234375 C1.72830127 17.64015268 1.89554984 21.45242793 2.64453125 25.37890625 C3.07684315 28.5666127 2.48494395 30.36384759 1.25 33.3125 C0.90453125 34.17488281 0.5590625 35.03726563 0.203125 35.92578125 C-1 38 -1 38 -4 39 C-3.52193015 36.29093753 -2.93678086 33.82776973 -1.98681641 31.23974609 C-0.93652522 27.79161052 -0.68493965 24.88614069 -0.5859375 21.2890625 C-0.54726562 20.04511719 -0.50859375 18.80117188 -0.46875 17.51953125 C-0.4378125 16.23433594 -0.406875 14.94914062 -0.375 13.625 C-0.33632812 12.31660156 -0.29765625 11.00820313 -0.2578125 9.66015625 C-0.16380043 6.44024284 -0.07814179 3.2203312 0 0 Z " fill="#6C67B7" transform="translate(86,36)"/>
<path d="M0 0 C4.97306516 0.49730652 8.63799813 1.55302334 13 4 C12.34 5.32 11.68 6.64 11 8 C10.67 7.34 10.34 6.68 10 6 C9.34 6 8.68 6 8 6 C8 7.32 8 8.64 8 10 C7.34 10 6.68 10 6 10 C5.67 8.68 5.34 7.36 5 6 C5 7.65 5 9.3 5 11 C3.68 11 2.36 11 1 11 C1 10.34 1 9.68 1 9 C1.66 9 2.32 9 3 9 C3.33 7.68 3.66 6.36 4 5 C3.34 5 2.68 5 2 5 C1.34 3.35 0.68 1.7 0 0 Z " fill="#E5E5EA" transform="translate(83,22)"/>
<path d="M0 0 C7.50769231 -0.36923077 7.50769231 -0.36923077 10 1.5 C10.33 1.995 10.66 2.49 11 3 C8 4 8 4 5.8125 3.0625 C5.214375 2.711875 4.61625 2.36125 4 2 C3.79029441 6.14093698 3.79029441 6.14093698 5 10 C0.71 9.67 -3.58 9.34 -8 9 C-6.68 8.01 -5.36 7.02 -4 6 C-3.1957792 3.40144267 -3.1957792 3.40144267 -3 1 C-2.34 1 -1.68 1 -1 1 C-0.67 2.32 -0.34 3.64 0 5 C0 3.35 0 1.7 0 0 Z " fill="#EBEBF3" transform="translate(71,19)"/>
<path d="M0 0 C0.66 0.33 1.32 0.66 2 1 C1.67 1.66 1.34 2.32 1 3 C4.96 3.33 8.92 3.66 13 4 C13.33 3.34 13.66 2.68 14 2 C14 2.66 14 3.32 14 4 C14.66 4.33 15.32 4.66 16 5 C14.35 5 12.7 5 11 5 C11 5.66 11 6.32 11 7 C12.32 7.33 13.64 7.66 15 8 C11.49799562 9.75100219 7.69347473 8.03082434 4 7.1875 C3.16726562 7.00896484 2.33453125 6.83042969 1.4765625 6.64648438 C0.67992188 6.46794922 -0.11671875 6.28941406 -0.9375 6.10546875 C-1.66839844 5.94199951 -2.39929687 5.77853027 -3.15234375 5.61010742 C-5 5 -5 5 -7 3 C-4.69 3 -2.38 3 0 3 C0 2.01 0 1.02 0 0 Z " fill="#ECECF3" transform="translate(64,9)"/>
<path d="M0 0 C9.57 0 19.14 0 29 0 C29 0.33 29 0.66 29 1 C25.7 1.33 22.4 1.66 19 2 C19 2.66 19 3.32 19 4 C18.34 4 17.68 4 17 4 C17 3.34 17 2.68 17 2 C16.34 2 15.68 2 15 2 C15 3.32 15 4.64 15 6 C14.01 6.33 13.02 6.66 12 7 C12 5.35 12 3.7 12 2 C11.34 2 10.68 2 10 2 C10 3.98 10 5.96 10 8 C9.67 8 9.34 8 9 8 C9 5.69 9 3.38 9 1 C6.03 1 3.06 1 0 1 C0 0.67 0 0.34 0 0 Z " fill="#D0D0DF" transform="translate(34,16)"/>
<path d="M0 0 C9.46968496 0.78914041 16.33937835 5.68012385 24 11 C21 12 21 12 18.984375 11.109375 C17.87835938 10.43648437 17.87835938 10.43648437 16.75 9.75 C13.95954689 8.1101558 11.24765942 6.5977295 8.25 5.375 C5.29596683 4.12521674 2.66625528 2.77750352 0 1 C0 0.67 0 0.34 0 0 Z " fill="#7B7ABB" transform="translate(20,81)"/>
<path d="M0 0 C0 0.99 0 1.98 0 3 C-4.09003859 4.14982602 -8.03177051 4.11094256 -12.25 4.0625 C-12.99507812 4.05798828 -13.74015625 4.05347656 -14.5078125 4.04882812 C-16.3385764 4.03709246 -18.16929873 4.0191585 -20 4 C-20 3.01 -20 2.02 -20 1 C-18.58847656 1.01740234 -18.58847656 1.01740234 -17.1484375 1.03515625 C-15.28058594 1.04869141 -15.28058594 1.04869141 -13.375 1.0625 C-11.53035156 1.07990234 -11.53035156 1.07990234 -9.6484375 1.09765625 C-6.32276209 1.00863924 -3.25952412 0.63686087 0 0 Z " fill="#CBC7D1" transform="translate(69,56)"/>
<path d="M0 0 C0.66 0.33 1.32 0.66 2 1 C1.67 1.99 1.34 2.98 1 4 C1.66 4 2.32 4 3 4 C3 2.68 3 1.36 3 0 C3.66 0 4.32 0 5 0 C5.144375 0.928125 5.28875 1.85625 5.4375 2.8125 C5.92100111 6.00725111 5.92100111 6.00725111 7 9 C4.525 10.485 4.525 10.485 2 12 C0 9 0 9 0 7 C-0.99 6.34 -1.98 5.68 -3 5 C-2.34 4.67 -1.68 4.34 -1 4 C-0.34786708 1.97536745 -0.34786708 1.97536745 0 0 Z " fill="#8C8ABB" transform="translate(88,28)"/>
<path d="M0 0 C1.32 0 2.64 0 4 0 C3.47462276 5.0302076 2.89405214 10.01885239 2 15 C1.34 15 0.68 15 0 15 C0 14.01 0 13.02 0 12 C-0.66 12 -1.32 12 -2 12 C-2.33 12.99 -2.66 13.98 -3 15 C-2.35812082 9.86496656 -1.31727753 5.0056546 0 0 Z " fill="#9FA09F" transform="translate(79,52)"/>
<path d="M0 0 C6.75 0.75 6.75 0.75 9 3 C9 3.99 9 4.98 9 6 C9.66 6 10.32 6 11 6 C11.33 5.01 11.66 4.02 12 3 C12 3.99 12 4.98 12 6 C12.99 6.33 13.98 6.66 15 7 C9.26157749 7.20413361 4.39460953 7.27141454 -1 5 C-0.67 4.34 -0.34 3.68 0 3 C0 2.01 0 1.02 0 0 Z " fill="#A8A8A7" transform="translate(36,79)"/>
<path d="M0 0 C1.9375 0.8125 1.9375 0.8125 4 2 C4.33 2.99 4.66 3.98 5 5 C5.66 5 6.32 5 7 5 C9.125 6.875 9.125 6.875 11 9 C11 9.66 11 10.32 11 11 C5.86665005 10.75555476 3.53132498 9.10698099 0.00390625 5.66796875 C-1 4 -1 4 -0.66015625 1.80078125 C-0.44230469 1.20652344 -0.22445313 0.61226563 0 0 Z " fill="#EEEFF5" transform="translate(18,71)"/>
<path d="M0 0 C1.65 0 3.3 0 5 0 C5 2.97 5 5.94 5 9 C4.34 9 3.68 9 3 9 C3 9.66 3 10.32 3 11 C3.99 11 4.98 11 6 11 C6 11.66 6 12.32 6 13 C4.125 12.8125 4.125 12.8125 2 12 C-0.30238787 8.08594062 -0.17461992 4.45280788 0 0 Z " fill="#A2A2A3" transform="translate(14,51)"/>
<path d="M0 0 C4.08254706 1.23425841 7.35989618 2.81593771 11 5 C12.98451771 5.71143088 14.98202112 6.38991336 17 7 C17 7.66 17 8.32 17 9 C17.99 9.33 18.98 9.66 20 10 C19.34 10 18.68 10 18 10 C18 10.99 18 11.98 18 13 C18.66 13.33 19.32 13.66 20 14 C16.44887729 13.60543081 15.05452678 12.08393405 12.703125 9.5390625 C9.55733097 6.69630367 5.84302032 4.64833467 2.23046875 2.453125 C1.49441406 1.97359375 0.75835938 1.4940625 0 1 C0 0.67 0 0.34 0 0 Z " fill="#8280BC" transform="translate(30,87)"/>
<path d="M0 0 C1.32 0.33 2.64 0.66 4 1 C4 9.33333333 4 17.66666667 4 26 C1.48603774 23.48603774 1.71818052 22.54388797 1.62109375 19.0625 C1.58693359 18.08539063 1.55277344 17.10828125 1.51757812 16.1015625 C1.49115234 15.07804687 1.46472656 14.05453125 1.4375 13 C1.37768583 10.9790447 1.31407235 8.95819715 1.24609375 6.9375 C1.22216553 6.03902344 1.1982373 5.14054687 1.17358398 4.21484375 C1.13647232 1.95964318 1.13647232 1.95964318 0 0 Z " fill="#2F2C89" transform="translate(85,34)"/>
<path d="M0 0 C0 1.65 0 3.3 0 5 C-3.46222615 6.06723961 -6.64039266 6.10173486 -10.25 6.0625 C-11.32765625 6.05347656 -12.4053125 6.04445313 -13.515625 6.03515625 C-14.33546875 6.02355469 -15.1553125 6.01195313 -16 6 C-15 4 -15 4 -12.8125 2.9375 C-9.87698731 1.95899577 -7.05468492 1.46484336 -4 1 C-1 0 -1 0 0 0 Z " fill="#706B83" transform="translate(72,63)"/>
<path d="M0 0 C0.66 0.33 1.32 0.66 2 1 C0.76378176 4.70865471 -0.78909339 5.7572654 -3.8125 8.1875 C-4.68519531 8.90292969 -5.55789062 9.61835938 -6.45703125 10.35546875 C-9 12 -9 12 -13 12 C-11.69311714 8.07935143 -9.85695653 7.2196784 -6.5 4.875 C-3.10369507 2.61767474 -3.10369507 2.61767474 0 0 Z " fill="#5B58AA" transform="translate(17,0)"/>
<path d="M0 0 C2.31 0.66 4.62 1.32 7 2 C6.125 6.75 6.125 6.75 5 9 C4.34 9 3.68 9 3 9 C2.34 10.32 1.68 11.64 1 13 C-0.25541557 9.23375329 0.62938042 7.62811066 2 4 C1.01 3.34 0.02 2.68 -1 2 C-0.67 1.34 -0.34 0.68 0 0 Z " fill="#6562AC" transform="translate(93,22)"/>
<path d="M0 0 C1.32 0.33 2.64 0.66 4 1 C4 1.66 4 2.32 4 3 C4.99 2.67 5.98 2.34 7 2 C6.67 2.99 6.34 3.98 6 5 C1.95637513 6.8380113 -0.73449853 7.25455926 -5 6 C-4.67 4.35 -4.34 2.7 -4 1 C-3.01 1.33 -2.02 1.66 -1 2 C-1.66 2 -2.32 2 -3 2 C-3 2.99 -3 3.98 -3 5 C-2.01 5 -1.02 5 0 5 C0 3.35 0 1.7 0 0 Z " fill="#B9B9B8" transform="translate(20,22)"/>
<path d="M0 0 C0.33 0.99 0.66 1.98 1 3 C7.93 3.495 7.93 3.495 15 4 C15 4.66 15 5.32 15 6 C10.38 6 5.76 6 1 6 C0.67 6.99 0.34 7.98 0 9 C-1.125 3.375 -1.125 3.375 0 0 Z " fill="#B4987C" transform="translate(46,58)"/>
<path d="M0 0 C3 1 3 1 3 1 Z M-15 1 C-14.67 1.66 -14.34 2.32 -14 3 C-13.39414062 2.84402344 -12.78828125 2.68804687 -12.1640625 2.52734375 C-5.81141631 1.05157517 -0.43065325 0.98751417 6 2 C6 2.33 6 2.66 6 3 C3.06328811 3.3622244 0.12596806 3.71508387 -2.8125 4.0625 C-3.64587891 4.16626953 -4.47925781 4.27003906 -5.33789062 4.37695312 C-6.14033203 4.47041016 -6.94277344 4.56386719 -7.76953125 4.66015625 C-8.50792236 4.74918213 -9.24631348 4.83820801 -10.00708008 4.92993164 C-12 5 -12 5 -15 4 C-15 3.01 -15 2.02 -15 1 Z " fill="#E6E6F0" transform="translate(32,12)"/>
<path d="M0 0 C0.66 0.33 1.32 0.66 2 1 C1.0479279 2.00596297 0.08812654 3.00461563 -0.875 4 C-1.40867187 4.556875 -1.94234375 5.11375 -2.4921875 5.6875 C-4 7 -4 7 -6 7 C-5.814375 7.5775 -5.62875 8.155 -5.4375 8.75 C-4.95976454 11.20692525 -5.24270636 12.64397534 -6 15 C-5.01 15.33 -4.02 15.66 -3 16 C-4.32 16.33 -5.64 16.66 -7 17 C-7.66 14.03 -8.32 11.06 -9 8 C-6.03 5.36 -3.06 2.72 0 0 Z " fill="#DFE1F3" transform="translate(16,4)"/>
<path d="M0 0 C0.66 0 1.32 0 2 0 C2 0.66 2 1.32 2 2 C3.32 2.33 4.64 2.66 6 3 C5.34 3 4.68 3 4 3 C3.67 3.99 3.34 4.98 3 6 C1.68 5.34 0.36 4.68 -1 4 C-1.33 5.32 -1.66 6.64 -2 8 C-3.98 8.33 -5.96 8.66 -8 9 C-8 8.01 -8 7.02 -8 6 C-7.01 6 -6.02 6 -5 6 C-5 5.34 -5 4.68 -5 4 C-4.01 3.67 -3.02 3.34 -2 3 C-1.34 2.01 -0.68 1.02 0 0 Z " fill="#C3C4C4" transform="translate(69,72)"/>
<path d="M0 0 C0.33 1.32 0.66 2.64 1 4 C-0.32 4 -1.64 4 -3 4 C-2.67 4.99 -2.34 5.98 -2 7 C-2.99 7.99 -3.98 8.98 -5 10 C-5.66 9.34 -6.32 8.68 -7 8 C-6.78167414 5.1617638 -6.35334968 3.46577913 -4.625 1.1875 C-3 0 -3 0 0 0 Z " fill="#726B72" transform="translate(46,31)"/>
<path d="M0 0 C0 1.98 0 3.96 0 6 C-0.99 5.01 -1.98 4.02 -3 3 C-3 4.32 -3 5.64 -3 7 C-5.46800047 5.84826645 -7.04783565 4.95216435 -9 3 C-8.01 3 -7.02 3 -6 3 C-6 2.34 -6 1.68 -6 1 C-7.65 1 -9.3 1 -11 1 C-11 0.67 -11 0.34 -11 0 C-3.57142857 -1.28571429 -3.57142857 -1.28571429 0 0 Z " fill="#B3B4BB" transform="translate(34,18)"/>
<path d="M0 0 C1.50168326 0.32566625 3.00234679 0.65627631 4.5 1 C2.5 3 2.5 3 0.52880859 3.04345703 C-0.6494751 2.90206299 -0.6494751 2.90206299 -1.8515625 2.7578125 C-2.70234375 2.66113281 -3.553125 2.56445312 -4.4296875 2.46484375 C-5.31914063 2.35269531 -6.20859375 2.24054687 -7.125 2.125 C-8.0221875 2.02058594 -8.919375 1.91617187 -9.84375 1.80859375 C-12.0638443 1.54879548 -14.28223534 1.27888059 -16.5 1 C-11.32779219 -2.44813854 -5.82973297 -1.15767747 0 0 Z " fill="#534FA2" transform="translate(69.5,15)"/>
<path d="M0 0 C7.42857143 -0.14285714 7.42857143 -0.14285714 11 1 C11 2.65 11 4.3 11 6 C10.01 6 9.02 6 8 6 C8 5.34 8 4.68 8 4 C7.05125 4.020625 6.1025 4.04125 5.125 4.0625 C2 4 2 4 0 3 C0 2.01 0 1.02 0 0 Z " fill="#A5A5A5" transform="translate(72,9)"/>
<path d="M0 0 C4.95 0.33 9.9 0.66 15 1 C15 1.33 15 1.66 15 2 C12.36 2 9.72 2 7 2 C7 2.66 7 3.32 7 4 C8.98 4 10.96 4 13 4 C13 4.33 13 4.66 13 5 C6.5510809 6.31909709 0.51244208 5.69508823 -6 5 C-6 4.67 -6 4.34 -6 4 C-2.04 4 1.92 4 6 4 C6 3.34 6 2.68 6 2 C3.03 1.505 3.03 1.505 0 1 C0 0.67 0 0.34 0 0 Z " fill="#8B88A2" transform="translate(56,52)"/>
<path d="M0 0 C0.99 0 1.98 0 3 0 C3 1.32 3 2.64 3 4 C3.66 4 4.32 4 5 4 C5 4.66 5 5.32 5 6 C4.34 6 3.68 6 3 6 C3 7.65 3 9.3 3 11 C2.01 11 1.02 11 0 11 C0 7.37 0 3.74 0 0 Z " fill="#303030" transform="translate(26,48)"/>
<path d="M0 0 C0.66 1.32 1.32 2.64 2 4 C2.66 4.33 3.32 4.66 4 5 C4.66 4.34 5.32 3.68 6 3 C6.33 4.32 6.66 5.64 7 7 C6.01 7 5.02 7 4 7 C4 8.65 4 10.3 4 12 C2.68 11.34 1.36 10.68 0 10 C0 6.7 0 3.4 0 0 Z " fill="#8E888F" transform="translate(38,35)"/>
<path d="M0 0 C0.66 0 1.32 0 2 0 C2.33 1.65 2.66 3.3 3 5 C1.68 5.33 0.36 5.66 -1 6 C-1 6.99 -1 7.98 -1 9 C-1.99 8.67 -2.98 8.34 -4 8 C-4.33 6.02 -4.66 4.04 -5 2 C-2.525 2.495 -2.525 2.495 0 3 C0 2.01 0 1.02 0 0 Z " fill="#A4A0A6" transform="translate(48,33)"/>
<path d="M0 0 C0.66 1.98 1.32 3.96 2 6 C1.34 6 0.68 6 0 6 C-0.33 6.66 -0.66 7.32 -1 8 C-2.875 7.6875 -2.875 7.6875 -5 7 C-5.66 6.01 -6.32 5.02 -7 4 C-5.68 4.33 -4.36 4.66 -3 5 C-3.33 3.68 -3.66 2.36 -4 1 C-2 0 -2 0 0 0 Z " fill="#B6B7B6" transform="translate(13,24)"/>
<path d="M0 0 C2.13586678 3.20380017 2.23132175 4.01939967 2.125 7.6875 C2.10695313 8.49574219 2.08890625 9.30398437 2.0703125 10.13671875 C2.04710937 10.75160156 2.02390625 11.36648437 2 12 C1.01 12.33 0.02 12.66 -1 13 C-1.02686553 11.02090602 -1.04633375 9.04171029 -1.0625 7.0625 C-1.07410156 5.96035156 -1.08570313 4.85820313 -1.09765625 3.72265625 C-1 1 -1 1 0 0 Z " fill="#373794" transform="translate(11,37)"/>
<path d="M0 0 C5.76044212 0.60636233 10.72014369 2.75658279 16 5 C16 5.66 16 6.32 16 7 C14.24859857 6.54705135 12.49892656 6.08741252 10.75 5.625 C9.77546875 5.36976562 8.8009375 5.11453125 7.796875 4.8515625 C5.32110669 4.09776712 3.21413982 3.33051522 1 2 C0.67 1.34 0.34 0.68 0 0 Z " fill="#4D48A1" transform="translate(69,28)"/>
<path d="M0 0 C0 0.33 0 0.66 0 1 C-1.89545392 1.48066535 -3.79138039 1.95946743 -5.6875 2.4375 C-7.27111328 2.83775391 -7.27111328 2.83775391 -8.88671875 3.24609375 C-9.91410156 3.49488281 -10.94148438 3.74367188 -12 4 C-12.91394531 4.23847656 -13.82789063 4.47695313 -14.76953125 4.72265625 C-15.50558594 4.81417969 -16.24164063 4.90570312 -17 5 C-17.66 4.34 -18.32 3.68 -19 3 C-18.34 3 -17.68 3 -17 3 C-16.67 2.34 -16.34 1.68 -16 1 C-13.97511372 0.71073053 -11.94755984 0.42727846 -9.91015625 0.24609375 C-3.17632552 -0.62145499 -3.17632552 -0.62145499 0 0 Z " fill="#D9DAEB" transform="translate(32,27)"/>
<path d="M0 0 C1.65 0 3.3 0 5 0 C5 1.98 5 3.96 5 6 C3.35 6.33 1.7 6.66 0 7 C0 4.69 0 2.38 0 0 Z " fill="#B8B7B7" transform="translate(36,18)"/>
<path d="M0 0 C2.97 0.495 2.97 0.495 6 1 C6 2.32 6 3.64 6 5 C5.01 5.495 5.01 5.495 4 6 C4 5.34 4 4.68 4 4 C3.34 4 2.68 4 2 4 C2 5.32 2 6.64 2 8 C1.34 8 0.68 8 0 8 C0 5.36 0 2.72 0 0 Z " fill="#EEEEF7" transform="translate(89,24)"/>
<path d="M0 0 C0.66 0.33 1.32 0.66 2 1 C2.33 1.99 2.66 2.98 3 4 C-0.08809695 5.76462683 -1.23312136 6 -5 6 C-5.99 5.34 -6.98 4.68 -8 4 C-7.34 4 -6.68 4 -6 4 C-6.33 3.01 -6.66 2.02 -7 1 C-3 1 -3 1 0 2 C0 1.34 0 0.68 0 0 Z " fill="#DCDBDE" transform="translate(35,78)"/>
<path d="M0 0 C0 0.66 0 1.32 0 2 C-3.63 2 -7.26 2 -11 2 C-11 1.01 -11 0.02 -11 -1 C-6.74938644 -2.41687119 -4.28148375 -1.19320039 0 0 Z " fill="#5B5981" transform="translate(62,54)"/>
<path d="M0 0 C3.99012371 0.55989303 6.5255052 1.75669768 9.8125 4.0625 C10.60269531 4.61035156 11.39289062 5.15820312 12.20703125 5.72265625 C12.79871094 6.14417969 13.39039063 6.56570312 14 7 C11 8 11 8 8.80859375 7.0390625 C8.02613281 6.57242188 7.24367188 6.10578125 6.4375 5.625 C5.25994141 4.93277344 5.25994141 4.93277344 4.05859375 4.2265625 C3.37925781 3.82179688 2.69992188 3.41703125 2 3 C1.34 2.67 0.68 2.34 0 2 C0 1.34 0 0.68 0 0 Z " fill="#5652A4" transform="translate(30,85)"/>
<path d="M0 0 C0 3 0 3 -1.9375 5.0625 C-2.618125 5.701875 -3.29875 6.34125 -4 7 C-4.33 7.66 -4.66 8.32 -5 9 C-5.99 9 -6.98 9 -8 9 C-8 8.01 -8 7.02 -8 6 C-7.34 6 -6.68 6 -6 6 C-5.896875 5.38125 -5.79375 4.7625 -5.6875 4.125 C-4.72223986 1.14146864 -3.16449578 0 0 0 Z " fill="#49479C" transform="translate(56,91)"/>
<path d="M0 0 C1.32 0 2.64 0 4 0 C4 0.66 4 1.32 4 2 C4.66 2 5.32 2 6 2 C6.66 3.32 7.32 4.64 8 6 C7.01 6.66 6.02 7.32 5 8 C5 7.34 5 6.68 5 6 C4.01 5.67 3.02 5.34 2 5 C2.33 4.01 2.66 3.02 3 2 C1.68 1.67 0.36 1.34 -1 1 C-0.67 0.67 -0.34 0.34 0 0 Z " fill="#989799" transform="translate(25,73)"/>
<path d="M0 0 C3.98175544 2.10148204 6.35039045 4.36905358 9 8 C5.81390075 7.64598897 4.20933322 7.16972964 1.6875 5.125 C0 3 0 3 0 0 Z " fill="#4847A0" transform="translate(14,73)"/>
<path d="M0 0 C1.34173403 0.92543709 2.67320159 1.86577405 4 2.8125 C5.11375 3.59560547 5.11375 3.59560547 6.25 4.39453125 C6.8275 4.92433594 7.405 5.45414062 8 6 C8 6.99 8 7.98 8 9 C7.34 9 6.68 9 6 9 C6 8.34 6 7.68 6 7 C5.38125 6.87625 4.7625 6.7525 4.125 6.625 C2 6 2 6 0 4 C0 2.68 0 1.36 0 0 Z " fill="#242424" transform="translate(33,60)"/>
<path d="M0 0 C2.475 0.99 2.475 0.99 5 2 C4.3125 4.4375 4.3125 4.4375 3 7 C0.375 7.8125 0.375 7.8125 -2 8 C-1.34 7.67 -0.68 7.34 0 7 C0 6.34 0 5.68 0 5 C-0.66 4.67 -1.32 4.34 -2 4 C-1.34 2.68 -0.68 1.36 0 0 Z " fill="#ADAEAF" transform="translate(83,24)"/>
<path d="M0 0 C0.66 0 1.32 0 2 0 C2.33 1.32 2.66 2.64 3 4 C3.66 4 4.32 4 5 4 C5 2.68 5 1.36 5 0 C5.66 0 6.32 0 7 0 C6.67 1.98 6.34 3.96 6 6 C4.02 6 2.04 6 0 6 C0 4.02 0 2.04 0 0 Z " fill="#9A999B" transform="translate(44,18)"/>
<path d="M0 0 C0 0.66 0 1.32 0 2 C-3.465 3.485 -3.465 3.485 -7 5 C-7 4.01 -7 3.02 -7 2 C-7.66 1.34 -8.32 0.68 -9 0 C-5.52176885 -1.15941038 -3.54104422 -0.70820884 0 0 Z " fill="#AAAAAA" transform="translate(65,80)"/>
<path d="M0 0 C0.66 0 1.32 0 2 0 C2 0.99 2 1.98 2 3 C2.66 3 3.32 3 4 3 C4.33 5.64 4.66 8.28 5 11 C4.34 11 3.68 11 3 11 C2.49384702 9.73160474 1.99530901 8.46016898 1.5 7.1875 C1.2215625 6.47980469 0.943125 5.77210937 0.65625 5.04296875 C0 3 0 3 0 0 Z " fill="#272727" transform="translate(18,37)"/>
<path d="M0 0 C2.99332739 0.9977758 3.94766315 1.7522025 6 4 C5.67 4.99 5.34 5.98 5 7 C1.125 6.125 1.125 6.125 0 5 C-0.04063832 3.33382885 -0.042721 1.66611905 0 0 Z " fill="#B8B6BB" transform="translate(41,51)"/>
<path d="M0 0 C2.64 0 5.28 0 8 0 C8.33 0.99 8.66 1.98 9 3 C9.66 3 10.32 3 11 3 C11.33 4.65 11.66 6.3 12 8 C11.34 6.68 10.68 5.36 10 4 C8.68 4 7.36 4 6 4 C5.67 3.34 5.34 2.68 5 2 C2.47266765 1.34444881 2.47266765 1.34444881 0 1 C0 0.67 0 0.34 0 0 Z " fill="#CDC9CE" transform="translate(46,31)"/>
<path d="M0 0 C4.61286713 1.31796204 8.14865412 3.13388214 12 6 C12.33 6.66 12.66 7.32 13 8 C8.27626146 6.37621488 4.05818166 3.89006982 0 1 C0 0.67 0 0.34 0 0 Z " fill="#E3E1F6" transform="translate(30,87)"/>
<path d="M0 0 C0.99 0 1.98 0 3 0 C3.33 1.98 3.66 3.96 4 6 C2.35 6.33 0.7 6.66 -1 7 C-1.33 5.35 -1.66 3.7 -2 2 C-0.68 2.33 0.64 2.66 2 3 C2 2.34 2 1.68 2 1 C1.34 0.67 0.68 0.34 0 0 Z " fill="#D2D2D3" transform="translate(18,61)"/>
<path d="M0 0 C0 0.99 0 1.98 0 3 C-2.64 3.33 -5.28 3.66 -8 4 C-8 3.34 -8 2.68 -8 2 C-8.99 1.67 -9.98 1.34 -11 1 C-5.555 0.505 -5.555 0.505 0 0 Z " fill="#B7B4C0" transform="translate(69,56)"/>
<path d="M0 0 C0.66 0 1.32 0 2 0 C4.04169485 2.90548882 5 4.40142046 5 8 C5.66 8.33 6.32 8.66 7 9 C4.28902773 8.62607279 3.17999533 8.18642373 1.25 6.1875 C0 4 0 4 0 0 Z " fill="#342E91" transform="translate(3,28)"/>
<path d="M0 0 C1.32 0 2.64 0 4 0 C3.4140625 6.15234375 3.4140625 6.15234375 3 8 C2.01 8.495 2.01 8.495 1 9 C-0.61949011 6.42786866 -1.04408751 5.32330841 -0.625 2.25 C-0.41875 1.5075 -0.2125 0.765 0 0 Z " fill="#7272BD" transform="translate(92,11)"/>
<path d="M0 0 C0.99 0.33 1.98 0.66 3 1 C3 1.66 3 2.32 3 3 C4.65 2.67 6.3 2.34 8 2 C8 2.66 8 3.32 8 4 C4.04 4 0.08 4 -4 4 C-3 2 -3 2 0 0 Z " fill="#555383" transform="translate(60,65)"/>
<path d="M0 0 C0.99 0 1.98 0 3 0 C3 3.63 3 7.26 3 11 C2.67 11 2.34 11 2 11 C2 9.35 2 7.7 2 6 C1.34 6 0.68 6 0 6 C0 4.02 0 2.04 0 0 Z " fill="#7A78BA" transform="translate(9,50)"/>
<path d="M0 0 C0.66 0.33 1.32 0.66 2 1 C1.67 1.99 1.34 2.98 1 4 C1.99 4.33 2.98 4.66 4 5 C3.67 5.99 3.34 6.98 3 8 C1.02 7.34 -0.96 6.68 -3 6 C-2 4 -1 2 0 0 Z " fill="#B2B5C6" transform="translate(88,28)"/>
<path d="M0 0 C0.33 0.99 0.66 1.98 1 3 C1.66 3.33 2.32 3.66 3 4 C-0.625 7 -0.625 7 -4 7 C-4.33 5.68 -4.66 4.36 -5 3 C-2.525 3.495 -2.525 3.495 0 4 C0 2.68 0 1.36 0 0 Z " fill="#EAEBF5" transform="translate(12,28)"/>
<path d="M0 0 C2.16874252 0.50603992 3.99967627 0.99983813 6 2 C5.67 3.32 5.34 4.64 5 6 C3.0625 5.25 3.0625 5.25 1 4 C0.25 1.875 0.25 1.875 0 0 Z " fill="#A4A4A3" transform="translate(75,21)"/>
<path d="M0 0 C0.66 0 1.32 0 2 0 C2 1.98 2 3.96 2 6 C0.35 6 -1.3 6 -3 6 C-2.67 4.68 -2.34 3.36 -2 2 C-1.34 2 -0.68 2 0 2 C0 1.34 0 0.68 0 0 Z " fill="#B8B7B8" transform="translate(53,18)"/>
<path d="M0 0 C1.99097846 2.98646769 2.94124926 5.59687262 4 9 C2.35 9 0.7 9 -1 9 C-0.67 6.03 -0.34 3.06 0 0 Z " fill="#DDDADE" transform="translate(44,61)"/>
<path d="M0 0 C0.66 0 1.32 0 2 0 C2 0.66 2 1.32 2 2 C3.65 2.33 5.3 2.66 7 3 C6.67 3.99 6.34 4.98 6 6 C4.68 5.34 3.36 4.68 2 4 C1.67 4.66 1.34 5.32 1 6 C0.67 4.02 0.34 2.04 0 0 Z " fill="#848484" transform="translate(33,56)"/>
<path d="M0 0 C2.475 0.99 2.475 0.99 5 2 C5 3.32 5 4.64 5 6 C2.5 4.6875 2.5 4.6875 0 3 C0 2.01 0 1.02 0 0 Z " fill="#6863AA" transform="translate(81,0)"/>
<path d="M0 0 C1.32 0.33 2.64 0.66 4 1 C4 1.66 4 2.32 4 3 C4.99 2.67 5.98 2.34 7 2 C6.67 2.99 6.34 3.98 6 5 C4.35 5 2.7 5 1 5 C0.67 3.35 0.34 1.7 0 0 Z " fill="#A9ABAB" transform="translate(20,22)"/>
<path d="M0 0 C0.66 0.99 1.32 1.98 2 3 C1 4 1 4 -2.5625 4.0625 C-3.696875 4.041875 -4.83125 4.02125 -6 4 C-6 3.01 -6 2.02 -6 1 C-3.03 1.495 -3.03 1.495 0 2 C0 1.34 0 0.68 0 0 Z " fill="#9C9C9C" transform="translate(38,67)"/>
<path d="M0 0 C1.32 0.33 2.64 0.66 4 1 C4 4 4 7 4 10 C1.81024227 6.71536341 1.00193437 3.79303725 0 0 Z " fill="#1D1B7E" transform="translate(85,34)"/>
<path d="M0 0 C-2.91708924 1.98362069 -4.12380904 1.9876191 -7.75 1.625 C-8.8225 1.41875 -9.895 1.2125 -11 1 C-11 0.67 -11 0.34 -11 0 C-6.98195309 -0.84098656 -3.98196457 -1.05404945 0 0 Z " fill="#5A57A5" transform="translate(34,16)"/>
<path d="M0 0 C0.66 0.33 1.32 0.66 2 1 C-0.97180943 2.89865603 -3.51460083 4.35455571 -7 5 C-7.33 4.01 -7.66 3.02 -8 2 C-6.865625 1.855625 -5.73125 1.71125 -4.5625 1.5625 C-1.19222799 1.38828522 -1.19222799 1.38828522 0 0 Z " fill="#8989C6" transform="translate(74,82)"/>
<path d="M0 0 C0.33 1.32 0.66 2.64 1 4 C-2.75 5.125 -2.75 5.125 -5 4 C-5 3.01 -5 2.02 -5 1 C-3.68 1.33 -2.36 1.66 -1 2 C-0.67 1.34 -0.34 0.68 0 0 Z " fill="#D9D9D9" transform="translate(40,59)"/>
<path d="M0 0 C1.32 0 2.64 0 4 0 C4 1.32 4 2.64 4 4 C2.35 4.33 0.7 4.66 -1 5 C-0.67 3.35 -0.34 1.7 0 0 Z " fill="#C6C4C3" transform="translate(79,52)"/>
<path d="M0 0 C-0.33 0.99 -0.66 1.98 -1 3 C-2.32 3 -3.64 3 -5 3 C-5.33 3.66 -5.66 4.32 -6 5 C-6 4.34 -6 3.68 -6 3 C-6.66 2.67 -7.32 2.34 -8 2 C-4.91190305 0.23537317 -3.76687864 0 0 0 Z " fill="#CFCAD2" transform="translate(56,42)"/>
<path d="M0 0 C0.66 0.66 1.32 1.32 2 2 C2.66 2 3.32 2 4 2 C4 2.66 4 3.32 4 4 C1.69 4.33 -0.62 4.66 -3 5 C-3 4.01 -3 3.02 -3 2 C-2.01 1.34 -1.02 0.68 0 0 Z " fill="#9C99A0" transform="translate(52,38)"/>
<path d="M0 0 C0.66 1.32 1.32 2.64 2 4 C1.34 4 0.68 4 0 4 C-0.66 5.32 -1.32 6.64 -2 8 C-2.33 7.01 -2.66 6.02 -3 5 C-1.5625 2.3125 -1.5625 2.3125 0 0 Z " fill="#3E3A9A" transform="translate(96,27)"/>
<path d="M0 0 C0.66 0.33 1.32 0.66 2 1 C1.67 1.33 1.34 1.66 1 2 C1.66 2.66 2.32 3.32 3 4 C2.625 6.125 2.625 6.125 2 8 C1.34 7.67 0.68 7.34 0 7 C0 6.01 0 5.02 0 4 C-0.66 4 -1.32 4 -2 4 C-2 3.01 -2 2.02 -2 1 C-1.34 0.67 -0.68 0.34 0 0 Z " fill="#CDCCEA" transform="translate(5,24)"/>
<path d="M0 0 C0.66 0 1.32 0 2 0 C2 2.64 2 5.28 2 8 C1.34 7.67 0.68 7.34 0 7 C-0.6875 4 -0.6875 4 -1 1 C-0.67 0.67 -0.34 0.34 0 0 Z " fill="#36318E" transform="translate(5,11)"/>
<path d="M0 0 C0.66 0 1.32 0 2 0 C2 1.98 2 3.96 2 6 C0.02 6 -1.96 6 -4 6 C-3.01 5.67 -2.02 5.34 -1 5 C-0.67 3.35 -0.34 1.7 0 0 Z " fill="#ACACAC" transform="translate(49,5)"/>
<path d="M0 0 C0.66 0.33 1.32 0.66 2 1 C0.86695008 4.39914975 -0.12518475 5.05254451 -3 7 C-3.66 6.67 -4.32 6.34 -5 6 C-3.35 4.02 -1.7 2.04 0 0 Z " fill="#4F4D9D" transform="translate(17,0)"/>
<path d="M0 0 C5.75 0.875 5.75 0.875 8 2 C8 2.66 8 3.32 8 4 C5.69 3.67 3.38 3.34 1 3 C0.67 2.01 0.34 1.02 0 0 Z " fill="#6765B0" transform="translate(69,28)"/>
</svg>
